name ./resultDataOpenSim/trcMotMarkerGrf/sub10/grf-01-01.mot
datacolumns 19
datarows 25
range 1.43600000 1.53200000
endheader

                time	     ground_force_vx	     ground_force_vy	     ground_force_vz	     ground_force_px	     ground_force_py	     ground_force_pz	   l_ground_force_vx	   l_ground_force_vy	   l_ground_force_vz	   l_ground_force_px	   l_ground_force_py	   l_ground_force_pz	     ground_torque_x	     ground_torque_y	     ground_torque_z	   l_ground_torque_x	   l_ground_torque_y	   l_ground_torque_z	
          1.43600000	        -40.81902859	        530.27634781	        -28.81262654	          0.73007834	          0.00000000	          0.01702343	          0.00000000	          0.00000000	          0.00000000	          0.00000000	          0.00000000	          0.00000000	          0.00000000	         -1.44707826	          0.00000000	          0.00000000	          0.00000000	          0.00000000	
          1.44000000	        -37.93466388	        524.85131628	        -27.11859702	          0.73192765	          0.00000000	          0.01733477	          0.00000000	          0.00000000	          0.00000000	          0.00000000	          0.00000000	          0.00000000	          0.00000000	         -1.49353776	          0.00000000	          0.00000000	          0.00000000	          0.00000000	
          1.44400000	        -36.20023412	        519.78066114	        -25.00479790	          0.73384011	          0.00000000	          0.01760988	          0.00000000	          0.00000000	          0.00000000	          0.00000000	          0.00000000	          0.00000000	          0.00000000	         -1.59909751	          0.00000000	          0.00000000	          0.00000000	          0.00000000	
          1.44800000	        -35.43497601	        515.12341520	        -22.88230930	          0.73579382	          0.00000000	          0.01786032	          0.00000000	          0.00000000	          0.00000000	          0.00000000	          0.00000000	          0.00000000	          0.00000000	         -1.71415186	          0.00000000	          0.00000000	          0.00000000	          0.00000000	
          1.45200000	        -35.19734638	        510.93989532	        -21.14541769	          0.73773125	          0.00000000	          0.01809372	          0.00000000	          0.00000000	          0.00000000	          0.00000000	          0.00000000	          0.00000000	          0.00000000	         -1.79013125	          0.00000000	          0.00000000	          0.00000000	          0.00000000	
          1.45600000	        -34.91358632	        507.27081689	        -20.09891967	          0.73958205	          0.00000000	          0.01831263	          0.00000000	          0.00000000	          0.00000000	          0.00000000	          0.00000000	          0.00000000	          0.00000000	         -1.78786080	          0.00000000	          0.00000000	          0.00000000	          0.00000000	
          1.46000000	        -34.03318262	        504.12114117	        -19.91172392	          0.74126914	          0.00000000	          0.01851960	          0.00000000	          0.00000000	          0.00000000	          0.00000000	          0.00000000	          0.00000000	          0.00000000	         -1.68419691	          0.00000000	          0.00000000	          0.00000000	          0.00000000	
          1.46400000	        -32.17327307	        501.46652190	        -20.59739901	          0.74272186	          0.00000000	          0.01871971	          0.00000000	          0.00000000	          0.00000000	          0.00000000	          0.00000000	          0.00000000	          0.00000000	         -1.47570805	          0.00000000	          0.00000000	          0.00000000	          0.00000000	
          1.46800000	        -29.22216728	        499.27620205	        -22.01815913	          0.74390422	          0.00000000	          0.01891585	          0.00000000	          0.00000000	          0.00000000	          0.00000000	          0.00000000	          0.00000000	          0.00000000	         -1.17845690	          0.00000000	          0.00000000	          0.00000000	          0.00000000	
          1.47200000	        -25.37633304	        497.52853004	        -23.91273194	          0.74483204	          0.00000000	          0.01910277	          0.00000000	          0.00000000	          0.00000000	          0.00000000	          0.00000000	          0.00000000	          0.00000000	         -0.82382103	          0.00000000	          0.00000000	          0.00000000	          0.00000000	
          1.47600000	        -21.09044142	        496.20515945	        -25.94595651	          0.74557673	          0.00000000	          0.01926888	          0.00000000	          0.00000000	          0.00000000	          0.00000000	          0.00000000	          0.00000000	          0.00000000	         -0.45143536	          0.00000000	          0.00000000	          0.00000000	          0.00000000	
          1.48000000	        -16.95079271	        495.27678700	        -27.76830630	          0.74624018	          0.00000000	          0.01939895	          0.00000000	          0.00000000	          0.00000000	          0.00000000	          0.00000000	          0.00000000	          0.00000000	         -0.10116122	          0.00000000	          0.00000000	          0.00000000	          0.00000000	
          1.48400000	        -13.51748158	        494.70123943	        -29.07529814	          0.74690683	          0.00000000	          0.01947616	          0.00000000	          0.00000000	          0.00000000	          0.00000000	          0.00000000	          0.00000000	          0.00000000	          0.19397892	          0.00000000	          0.00000000	          0.00000000	          0.00000000	
          1.48800000	        -11.18624973	        494.43219488	        -29.66051059	          0.74763015	          0.00000000	          0.01948669	          0.00000000	          0.00000000	          0.00000000	          0.00000000	          0.00000000	          0.00000000	          0.00000000	          0.41270348	          0.00000000	          0.00000000	          0.00000000	          0.00000000	
          1.49200000	        -10.10039364	        494.42663523	        -29.45139343	          0.74844213	          0.00000000	          0.01941898	          0.00000000	          0.00000000	          0.00000000	          0.00000000	          0.00000000	          0.00000000	          0.00000000	          0.54799657	          0.00000000	          0.00000000	          0.00000000	          0.00000000	
          1.49600000	        -10.12033281	        494.64211674	        -28.51868692	          0.74934764	          0.00000000	          0.01926981	          0.00000000	          0.00000000	          0.00000000	          0.00000000	          0.00000000	          0.00000000	          0.00000000	          0.60760279	          0.00000000	          0.00000000	          0.00000000	          0.00000000	
          1.50000000	        -10.85533510	        495.02034464	        -27.05783229	          0.75031657	          0.00000000	          0.01904823	          0.00000000	          0.00000000	          0.00000000	          0.00000000	          0.00000000	          0.00000000	          0.00000000	          0.61271693	          0.00000000	          0.00000000	          0.00000000	          0.00000000	
          1.50400000	        -11.76086651	        495.48497216	        -25.34745501	          0.75126664	          0.00000000	          0.01877359	          0.00000000	          0.00000000	          0.00000000	          0.00000000	          0.00000000	          0.00000000	          0.00000000	          0.59468408	          0.00000000	          0.00000000	          0.00000000	          0.00000000	
          1.50800000	        -12.28187247	        495.97716128	        -23.69703213	          0.75208093	          0.00000000	          0.01847824	          0.00000000	          0.00000000	          0.00000000	          0.00000000	          0.00000000	          0.00000000	          0.00000000	          0.58956666	          0.00000000	          0.00000000	          0.00000000	          0.00000000	
          1.51200000	        -11.99461125	        496.49319932	        -22.39463394	          0.75270614	          0.00000000	          0.01818628	          0.00000000	          0.00000000	          0.00000000	          0.00000000	          0.00000000	          0.00000000	          0.00000000	          0.63121576	          0.00000000	          0.00000000	          0.00000000	          0.00000000	
          1.51600000	        -10.69888486	        497.07934512	        -21.65963599	          0.75314137	          0.00000000	          0.01790891	          0.00000000	          0.00000000	          0.00000000	          0.00000000	          0.00000000	          0.00000000	          0.00000000	          0.74442309	          0.00000000	          0.00000000	          0.00000000	          0.00000000	
          1.52000000	         -8.44062337	        497.79394673	        -21.60588806	          0.75340111	          0.00000000	          0.01764567	          0.00000000	          0.00000000	          0.00000000	          0.00000000	          0.00000000	          0.00000000	          0.00000000	          0.94000240	          0.00000000	          0.00000000	          0.00000000	          0.00000000	
          1.52400000	         -5.47400525	        498.68494392	        -22.22098603	          0.75351496	          0.00000000	          0.01739059	          0.00000000	          0.00000000	          0.00000000	          0.00000000	          0.00000000	          0.00000000	          0.00000000	          1.21302115	          0.00000000	          0.00000000	          0.00000000	          0.00000000	
          1.52800000	         -2.18282148	        499.80323453	        -23.36636769	          0.75352645	          0.00000000	          0.01713907	          0.00000000	          0.00000000	          0.00000000	          0.00000000	          0.00000000	          0.00000000	          0.00000000	          1.54430571	          0.00000000	          0.00000000	          0.00000000	          0.00000000	
          1.53200000	          1.02378475	        501.21943062	        -24.80175375	          0.75349943	          0.00000000	          0.01688547	          0.00000000	          0.00000000	          0.00000000	          0.00000000	          0.00000000	          0.00000000	          0.00000000	          1.90443575	          0.00000000	          0.00000000	          0.00000000	          0.00000000	
